# xmcd
#
# Track frame offsets:
#	150
#	16510
#	35612
#	46804
#	62166
#	81385
#	100115
#	115028
#	130350
#	146119
#	162675
#	182038
#	203287
#	220578
#	233030
#	248911
#	262017
#	282100
#	295772
#	316461
#
# Disc length: 4398 seconds
#
# Revision: 2
# Processed by: cddbd v1.5.2PL0 Copyright (c) Steve Scherf et al.
# Submitted via: audiograbber 1.83.01
#
DISCID=1e112c14
DTITLE=Isla Grant - The Essential Isla Grant [Disc 1]
DYEAR=2010
DGENRE=Country
TTITLE0=A Dream Come True
TTITLE1=Mother
TTITLE2=Listen To The Children
TTITLE3=Amazing Grace
TTITLE4=Cottage In The Country
TTITLE5=Only Yesterday
TTITLE6=WIll You Walk With Me
TTITLE7=A Single Yellow Rose
TTITLE8=You're The Best Friend
TTITLE9=Parcel Of Dreams
TTITLE10=Childhood Memories
TTITLE11=It's Not Easy
TTITLE12=The Beauty Of My Home
TTITLE13=Love's A Blessing
TTITLE14=Life's Storybook Cover
TTITLE15=My World Revolves Around You
TTITLE16=Lough Ree
TTITLE17=How Lucky I Must Be
TTITLE18=Hope
TTITLE19=We'll Meet Again My Friends
EXTD=
EXTT0=
EXTT1=
EXTT2=
EXTT3=
EXTT4=
EXTT5=
EXTT6=
EXTT7=
EXTT8=
EXTT9=
EXTT10=
EXTT11=
EXTT12=
EXTT13=
EXTT14=
EXTT15=
EXTT16=
EXTT17=
EXTT18=
EXTT19=
PLAYORDER=
